/* XPM */
static char *a9e3c99d46ad4919a60daf329f2d377bFDzn8XxOTanNAidG[] = {
/* columns rows colors chars-per-pixel */
"16 16 35 1 ",
"  c #2F3837",
". c #303938",
"X c #323838",
"o c #30383A",
"O c #47504F",
"+ c #48514E",
"@ c #49524F",
"# c #4A4F52",
"$ c #485150",
"% c #4A5050",
"& c #495251",
"* c #576F6F",
"= c #58716E",
"- c #5A6F70",
"; c #577170",
": c #587070",
"> c #597171",
", c #587072",
"< c #597173",
"1 c #7F9797",
"2 c #7F9998",
"3 c #809996",
"4 c #829798",
"5 c #809898",
"6 c #819999",
"7 c #A6B7BF",
"8 c #A7B8BF",
"9 c #A9B7C0",
"0 c #A7B8C0",
"q c #A6B9C0",
"w c #A7B8C2",
"e c #A8B9C1",
"r c #B1CFCF",
"t c #B0D0CF",
"y c #AFD1D2",
/* pixels */
"00000ttttry00900",
"e5005100000e0000",
":9000242:::5512:",
"55002:;&555:::;:",
"5555-:&555255::5",
"2555::&515555:55",
"555::O::5555::55",
"555::&:::51::5-5",
"51:;*&:::::<:55:",
"&:-*&O::::;;1155",
"&**&*:&*:::&2555",
"::&:::O*:::&455:",
":=&::::&::&:;:::",
"#OO*::;&&O#:::::",
"&O@&::& %O&*::&O",
"O&XOO&O.O&...o.."
};
